<svg xmlns="http://www.w3.org/2000/svg" viewBox="440 20 1040 1040">
  <defs>
    <linearGradient id="gf" x1="1293.55" y1="781.15" x2="612.71" y2="100.31" gradientUnits="userSpaceOnUse">
      <stop offset="0" stop-color="#059669"/>
      <stop offset="1" stop-color="#22c55e"/>
    </linearGradient>
  </defs>
  <path fill="url(#gf)" fill-rule="evenodd" stroke="none" d="M952.12,30.9c101.32,38.33,202.68,76.67,304,115,38.44,14.19,104.55,30.48,135,52,8.26,84.03,2.56,184.39-6.45,257.2-4.35,35.2-9.95,72.93-19.74,105.68-63.01,228.14-178.11,363.98-371.81,469.12-10.34,6.11-24.1,16.46-37,19-12.8,2.52-43.98-19.7-53-25-47.31-27.83-88.69-55.56-130-88-106.94-83.98-182.88-207.64-225-356-11.45-40.34-17.89-80.69-27.45-124.8-13.4-61.82-17.13-191.43-4.55-258.2,145.32-55.33,290.68-110.67,436-166ZM952.12,109.9l-370,135c-2.52,371.55,105.91,595.93,373,727,191.37-86.67,320.89-268.36,354.06-480.8,8-33.65,10.06-72.39,12.94-110.2,1.44-18.96,1.33-38,2-57,.55-17.06.11-67.73-3-82l-369-132ZM945.12,195.9c134.13,2.32,174.4,98.83,173,214-.11,9.06-.15,18,7.97,18,24.77,0,56.42,4.2,59.23,22.16,1.16,9.14.69,10.68.81,19.84,0,57.99,0,116.01,0,174,.39,94.49-85.35,140.61-160,185-11.76,7-57.61,33.16-74,37.42-18.06-6.19-41.34-18.76-59-28.42-79-45.7-140.16-87.9-172-177-12.37-34.61-6.74-192.04,8-212,16.57-22.44,27.68-21,58-22-.98-112.97,29.59-172.19,91.97-212.84,13.55-7.35,24.36-10.5,39.03-15.16l27-3ZM855.12,427.9c-4.47-16.34-2.56-43.73-.03-58.61,2.79-16.34,3.97-27.25,9.03-40.39,16.63-43.16,71.48-78.87,128-54,51.2,22.53,59.15,77.31,58,153h-195ZM1004.12,580.9c-3.19,10.77-14,20-21,30,.26,30.84,1.29,65.42,1,91-.48,9.97,5.19,8.16-31.59,7.91-37.54-.52-33.41,1.81-33.41-8.91l2-89c-7-10.33-16.97-20.23-21-31-13.73-39.83,19.52-62.26,50.92-62.26,35.69,0,66.44,21.25,53.08,62.26Z"/>
</svg>